<?xml version="1.0" encoding="UTF-8"?>
<svg xmlns="http://www.w3.org/2000/svg" width="16px" height="16px" viewBox="0 0 16 16" preserveAspectRatio="xMidYMid meet">
  <path d="M15.76,9.35c-.06,0-.1.05-.17.19a7.43,7.43,0,0,1-6.83,4.64A6.78,6.78,0,0,1,1.88,9.53l2.83.53a4.41,4.41,0,0,0,4,2.52c3,0,5.12-3,5.12-6.13A6.42,6.42,0,0,0,10.89.79L3.19,4.34a.08.08,0,0,0,0,.11.07.07,0,0,0,.06,0c4.26,1,5,4,4.78,5.79,0,.26.14.22.31-.26A4.84,4.84,0,0,0,6.15,4.36l4.28-2.13a4.89,4.89,0,0,1,2.2,4.23c0,2.7-1.57,5.15-4,5.15A3.66,3.66,0,0,1,5.43,9.14L.34,8a.11.11,0,0,0-.14.09.06.06,0,0,0,0,0,7.88,7.88,0,0,0,8.06,7.05,7.45,7.45,0,0,0,7.35-5C15.85,9.59,15.84,9.35,15.76,9.35Z"/>
</svg>
