<?xml version="1.0" encoding="UTF-8"?>
<svg xmlns="http://www.w3.org/2000/svg" width="32px" height="32px" viewBox="0 0 32 32" focusable="false">
  <title>LinkedIn</title>
  <path d="M26 23h-3.757v-5.273c0-1.38-.588-2.323-1.88-2.323-.989 0-1.539.636-1.795 1.25-.095.219-.08.525-.08.832V23h-3.723s.048-9.34 0-10.19h3.723v1.6c.22-.7 1.409-1.698 3.307-1.698 2.355 0 4.205 1.466 4.205 4.622V23zM11.001 11.536h-.024c-1.2 0-1.977-.78-1.977-1.767C9 8.763 9.8 8 11.024 8c1.222 0 1.974.76 1.998 1.766 0 .988-.776 1.77-2.02 1.77zM9.43 12.81h3.313V23H9.43V12.81z"/>
</svg>
