<?xml version="1.0" encoding="UTF-8"?>
<svg xmlns="http://www.w3.org/2000/svg" width="32px" height="32px" viewBox="0 0 32 32" focusable="false">
  <title>Youtube</title>
  <path d="M626.81 64.04a80.18 80.18 0 00-56.4-56.42c-50.09-13.7-250.42-13.7-250.42-13.7S119.67-6.08 69.6 7.1c-26.9 7.38-49.04 29.52-56.41 56.94C0 114.1 0 217.97 0 217.97S0 322.35 13.18 371.9a80.2 80.2 0 0056.41 56.41C120.19 442.02 320 442.02 320 442.02s200.32 0 250.4-13.18a80.18 80.18 0 0056.42-56.41C640 322.35 640 218.5 640 218.5s.52-104.39-13.19-154.46zM256.21 313.9V122.02l166.59 95.95zm0 0"/>
</svg>
